# xmcd
#
# Track frame offsets: 
#        150
#        14809
#        28558
#        40860
#        58266
#        69489
#        86605
#        102744
#        112580
#        131104
#        141507
#        158632
#        169877
#        185860
#        206123
#        220790
#        232830
#        246580
#        263084
#        279840
#        299977
#        311504
#
# Disc length: 4461 seconds
#
# Revision: 2
# Processed by: cddbd v1.5.2PL0 Copyright (c) Steve Scherf et al.
# Submitted via: ExactAudioCopyFreeDBPlugin 1.0
#
DISCID=59116b16
DTITLE=Ray Charles - Fifteen Classic Albums Plus Bonus Singles [Real G
DTITLE=one Music]
DYEAR=2012
DGENRE=Rhythm and Blues
TTITLE0=Hard Hearted Hannah
TTITLE1=Nancy (With the Laughing Face)
TTITLE2=Margie
TTITLE3=Ruby
TTITLE4=Rosetta
TTITLE5=Stella By Starlight
TTITLE6=Cherry
TTITLE7=Josephine
TTITLE8=Candy
TTITLE9=Marie
TTITLE10=Diane
TTITLE11=Sweet Georgia Brown
TTITLE12=From the Heart
TTITLE13=I've Got News for You
TTITLE14=Moanin'
TTITLE15=Let's Go
TTITLE16=One Mint Julep
TTITLE17=I'm Gonna Move to the Outskirts of Town
TTITLE18=Stompin' Room Only
TTITLE19=Mister C.
TTITLE20=Strike Up the Band
TTITLE21=Birth of the Blues
EXTD=
EXTT0=
EXTT1=
EXTT2=
EXTT3=
EXTT4=
EXTT5=
EXTT6=
EXTT7=
EXTT8=
EXTT9=
EXTT10=
EXTT11=
EXTT12=
EXTT13=
EXTT14=
EXTT15=
EXTT16=
EXTT17=
EXTT18=
EXTT19=
EXTT20=
EXTT21=
PLAYORDER=
